name Run_500 02_newCOP3_v24.mot
datacolumns 19
datarows 81
range 1.920833 2.004167
DataType=double
version=3
OpenSimVersion=4.3-2021-08-27-4bc7ad9
endheader
time	R_ground_force_vx	R_ground_force_vy	R_ground_force_vz	R_ground_force_px	R_ground_force_py	R_ground_force_pz	L_ground_force_vx	L_ground_force_vy	L_ground_force_vz	L_ground_force_px	L_ground_force_py	L_ground_force_pz	R_ground_torque_x	R_ground_torque_y	R_ground_torque_z	L_ground_torque_x	L_ground_torque_y	L_ground_torque_z
1.920833	0	0	0	0	0	0	-95.34871699999999	1898.633911	4.987169	0.9306680000000001	0	-0.630421	0	0	0	-0	3.22541	-0
1.921875	0	0	0	0	0	0	-90.051956	1906.365356	5.625922	0.927176	0	-0.630537	0	0	0	-0	2.923443	-0
1.922917	0	0	0	0	0	0	-84.98728199999999	1913.324951	6.288013	0.923744	0	-0.630645	0	0	0	-0	2.629676	-0
1.923958	0	0	0	0	0	0	-80.141014	1919.505493	6.969998	0.920368	0	-0.630746	0	0	0	-0	2.344762	-0
1.925	0	0	0	0	0	0	-75.49504899999999	1924.901978	7.666688	0.917042	0	-0.630839	0	0	0	-0	2.069317	-0
1.926042	0	0	0	0	0	0	-71.02776299999999	1929.511719	8.371373	0.913757	0	-0.630927	0	0	0	-0	1.803922	-0
1.927083	0	0	0	0	0	0	-66.71502700000001	1933.334473	9.076082	0.910506	0	-0.631008	0	0	0	-0	1.549124	-0
1.928125	0	0	0	0	0	0	-62.531155	1936.373047	9.771877	0.90728	0	-0.631086	0	0	0	-0	1.305431	-0
1.929167	0	0	0	0	0	0	-58.449856	1938.633545	10.449171	0.904069	0	-0.6311600000000001	0	0	0	-0	1.073313	-0
1.930208	0	0	0	0	0	0	-54.445023	1940.125	11.098044	0.900864	0	-0.631232	0	0	0	-0	0.853202	-0
1.93125	0	0	0	0	0	0	-50.491383	1940.859253	11.708575	0.897655	0	-0.6313029999999999	0	0	0	-0	0.64549	-0
1.932292	0	0	0	0	0	0	-46.565014	1940.851563	12.271152	0.894433	0	-0.631375	0	0	0	-0	0.450528	-0
1.933333	0	0	0	0	0	0	-42.643681	1940.119629	12.776769	0.891191	0	-0.631448	0	0	0	-0	0.268627	-0
1.934375	0	0	0	0	0	0	-38.707031	1938.683594	13.217283	0.887919	0	-0.6315229999999999	0	0	0	-0	0.100055	-0
1.935417	0	0	0	0	0	0	-34.736702	1936.565796	13.585653	0.884612	0	-0.631602	0	0	0	0	-0.054961	0
1.936458	0	0	0	0	0	0	-30.716333	1933.790283	13.876117	0.881265	0	-0.6316850000000001	0	0	0	0	-0.196236	0
1.9375	0	0	0	0	0	0	-26.63154	1930.382446	14.084332	0.877872	0	-0.631773	0	0	0	0	-0.323628	0
1.938542	0	0	0	0	0	0	-22.469896	1926.36853	14.207464	0.87443	0	-0.631866	0	0	0	0	-0.437039	0
1.939583	0	0	0	0	0	0	-18.220932	1921.775146	14.244226	0.870938	0	-0.6319630000000001	0	0	0	0	-0.536412	0
1.940625	0	0	0	0	0	0	-13.876163	1916.62915	14.194857	0.867394	0	-0.632066	0	0	0	0	-0.621732	0
1.941667	0	0	0	0	0	0	-9.429186	1910.956177	14.061064	0.8638	0	-0.632174	0	0	0	0	-0.6930269999999999	0
1.942708	0	0	0	0	0	0	-4.875793	1904.781372	13.845914	0.8601569999999999	0	-0.632287	0	0	0	0	-0.750364	0
1.94375	0	0	0	0	0	0	-0.214129	1898.127441	13.553681	0.856467	0	-0.632402	0	0	0	0	-0.793853	0
1.944792	0	0	0	0	0	0	4.555159	1891.015259	13.189663	0.852735	0	-0.632521	0	0	0	0	-0.823642	0
1.945833	0	0	0	0	0	0	9.428801999999999	1883.463135	12.759975	0.8489640000000001	0	-0.632641	0	0	0	0	-0.839917	0
1.946875	0	0	0	0	0	0	14.400856	1875.485718	12.271315	0.845159	0	-0.632762	0	0	0	0	-0.842904	0
1.947917	0	0	0	0	0	0	19.462727	1867.094727	11.730722	0.841327	0	-0.632881	0	0	0	0	-0.832861	0
1.948958	0	0	0	0	0	0	24.603338	1858.297852	11.145338	0.837473	0	-0.6329979999999999	0	0	0	0	-0.8100850000000001	0
1.95	0	0	0	0	0	0	29.809408	1849.099121	10.522159	0.833604	0	-0.633111	0	0	0	0	-0.774903	0
1.951042	0	0	0	0	0	0	35.065903	1839.498779	9.867813999999999	0.829725	0	-0.6332179999999999	0	0	0	0	-0.727676	0
1.952083	0	0	0	0	0	0	40.356617	1829.493408	9.188359999999999	0.825842	0	-0.633318	0	0	0	0	-0.668795	0
1.953125	0	0	0	0	0	0	45.664879	1819.076172	8.489099	0.82196	0	-0.633409	0	0	0	0	-0.598679	0
1.954167	0	0	0	0	0	0	50.974388	1808.237183	7.774426	0.818084	0	-0.633489	0	0	0	0	-0.517774	0
1.955208	0	0	0	0	0	0	56.270084	1796.963867	7.047727	0.814217	0	-0.633558	0	0	0	0	-0.426555	0
1.95625	0	0	0	0	0	0	61.53907	1785.241577	6.311297	0.810362	0	-0.633614	0	0	0	0	-0.325517	0
1.957292	0	0	0	0	0	0	66.771477	1773.054443	5.566309	0.806519	0	-0.633656	0	0	0	0	-0.21518	0
1.958333	0	0	0	0	0	0	71.961235	1760.385376	4.812825	0.802688	0	-0.633684	0	0	0	0	-0.096086	0
1.959375	0	0	0	0	0	0	77.10674299999999	1747.217163	4.049839	0.798867	0	-0.633697	0	0	0	-0	0.031205	-0
1.960417	0	0	0	0	0	0	82.21127300000001	1733.533325	3.275369	0.795052	0	-0.633695	0	0	0	-0	0.166113	-0
1.961458	0	0	0	0	0	0	87.283142	1719.317993	2.486572	0.791237	0	-0.633678	0	0	0	-0	0.308042	-0
1.9625	0	0	0	0	0	0	92.33564800000001	1704.557251	1.679895	0.787416	0	-0.633647	0	0	0	-0	0.456381	-0
1.963542	0	0	0	0	0	0	97.386627	1689.23938	0.851254	0.783579	0	-0.633603	0	0	0	-0	0.610504	-0
1.964583	0	0	0	0	0	0	102.457771	1673.355347	-0.003777	0.7797190000000001	0	-0.633545	0	0	0	-0	0.769772	-0
1.965625	0	0	0	0	0	0	107.573608	1656.898682	-0.889755	0.775824	0	-0.633476	0	0	0	-0	0.933535	-0
1.966667	0	0	0	0	0	0	112.760284	1639.866455	-1.811154	0.771883	0	-0.633396	0	0	0	-0	1.101133	-0
1.967708	0	0	0	0	0	0	118.044121	1622.258911	-2.772155	0.767887	0	-0.633306	0	0	0	-0	1.271899	-0
1.96875	0	0	0	0	0	0	123.450027	1604.079468	-3.776434	0.7638239999999999	0	-0.633209	0	0	0	-0	1.445158	-0
1.969792	0	0	0	0	0	0	128.999939	1585.334595	-4.826971	0.7596850000000001	0	-0.633105	0	0	0	-0	1.620229	-0
1.970833	0	0	0	0	0	0	134.711243	1566.033936	-5.925874	0.755462	0	-0.632997	0	0	0	-0	1.79643	-0
1.971875	0	0	0	0	0	0	140.595291	1546.189331	-7.074226	0.751147	0	-0.632885	0	0	0	-0	1.973075	-0
1.972917	0	0	0	0	0	0	146.656281	1525.81543	-8.271958	0.746734	0	-0.632771	0	0	0	-0	2.149479	-0
1.973958	0	0	0	0	0	0	152.890259	1504.928345	-9.517761999999999	0.742221	0	-0.632656	0	0	0	-0	2.32496	-0
1.975	0	0	0	0	0	0	159.284515	1483.546265	-10.809024	0.737604	0	-0.632542	0	0	0	-0	2.498841	-0
1.976042	0	0	0	0	0	0	165.817398	1461.688354	-12.141802	0.732885	0	-0.632429	0	0	0	-0	2.670449	-0
1.977083	0	0	0	0	0	0	172.45845	1439.375	-13.51084	0.728066	0	-0.632318	0	0	0	-0	2.839122	-0
1.978125	0	0	0	0	0	0	179.168976	1416.626953	-14.909612	0.723151	0	-0.63221	0	0	0	-0	3.004209	-0
1.979167	0	0	0	0	0	0	185.902939	1393.466064	-16.330399	0.718147	0	-0.632104	0	0	0	-0	3.165072	-0
1.980208	0	0	0	0	0	0	192.608139	1369.914307	-17.764406	0.713063	0	-0.632002	0	0	0	-0	3.32109	-0
1.98125	0	0	0	0	0	0	199.227737	1345.993774	-19.201897	0.707908	0	-0.631902	0	0	0	-0	3.471661	-0
1.982292	0	0	0	0	0	0	205.701752	1321.727051	-20.632362	0.702696	0	-0.6318049999999999	0	0	0	-0	3.616204	-0
1.983333	0	0	0	0	0	0	211.968903	1297.136353	-22.044703	0.697438	0	-0.631711	0	0	0	-0	3.754164	-0
1.984375	0	0	0	0	0	0	217.968246	1272.244019	-23.427423	0.69215	0	-0.631618	0	0	0	-0	3.88501	-0
1.985417	0	0	0	0	0	0	223.640839	1247.071899	-24.768856	0.686847	0	-0.6315269999999999	0	0	0	-0	4.008242	-0
1.986458	0	0	0	0	0	0	228.93132	1221.641479	-26.057364	0.681547	0	-0.631436	0	0	0	-0	4.123394	-0
1.9875	0	0	0	0	0	0	233.78923	1195.973389	-27.281555	0.676267	0	-0.631347	0	0	0	-0	4.23003	-0
1.988542	0	0	0	0	0	0	238.170151	1170.08728	-28.430506	0.671025	0	-0.631257	0	0	0	-0	4.327754	-0
1.989583	0	0	0	0	0	0	242.036652	1144.001831	-29.49395	0.66584	0	-0.631167	0	0	0	-0	4.416208	-0
1.990625	0	0	0	0	0	0	245.358826	1117.733887	-30.462471	0.660728	0	-0.631077	0	0	0	-0	4.495075	-0
1.991667	0	0	0	0	0	0	248.114731	1091.299561	-31.327665	0.655709	0	-0.630986	0	0	0	-0	4.564079	-0
1.992708	0	0	0	0	0	0	250.290497	1064.712769	-32.082298	0.650798	0	-0.630894	0	0	0	-0	4.62299	-0
1.99375	0	0	0	0	0	0	251.880173	1037.986206	-32.720413	0.646011	0	-0.6308	0	0	0	-0	4.671621	-0
1.994792	0	0	0	0	0	0	252.885437	1011.131592	-33.237438	0.641363	0	-0.630706	0	0	0	-0	4.709835	-0
1.995833	0	0	0	0	0	0	253.315094	984.159119	-33.63026	0.636865	0	-0.63061	0	0	0	-0	4.737537	-0
1.996875	0	0	0	0	0	0	253.184372	957.078613	-33.897236	0.632528	0	-0.630512	0	0	0	-0	4.754683	-0
1.997917	0	0	0	0	0	0	252.514175	929.899597	-34.038235	0.628358	0	-0.630412	0	0	0	-0	4.761274	-0
1.998958	0	0	0	0	0	0	251.3302	902.631836	-34.054592	0.6243610000000001	0	-0.630311	0	0	0	-0	4.75736	-0
2	0	0	0	0	0	0	249.662033	875.2861329999999	-33.949066	0.620538	0	-0.630207	0	0	0	-0	4.743037	-0
2.001042	0	0	0	0	0	0	247.54213	847.874512	-33.725777	0.616887	0	-0.6301020000000001	0	0	0	-0	4.718445	-0
2.002083	0	0	0	0	0	0	245.004852	820.411194	-33.390076	0.613406	0	-0.6299940000000001	0	0	0	-0	4.683772	-0
2.003125	0	0	0	0	0	0	242.085464	792.912537	-32.948456	0.610086	0	-0.629884	0	0	0	-0	4.639246	-0
2.004167	0	0	0	0	0	0	238.819244	765.398132	-32.408382	0.606917	0	-0.629771	0	0	0	-0	4.585136	-0
